<svg xmlns="http://www.w3.org/2000/svg" version="1.1" viewBox="-5.0 -10.0 110.0 135.0">
 <g>
  <path d="m82 13.047-39.516-6.7031c-3.8359-0.59375-7.4414 1.9883-8.1094 5.8125l-0.6875 4.0469h-13.781c-4.3164 0-7.8125 3.4961-7.8125 7.8125v61.922c0 2.0703 0.82422 4.0586 2.2891 5.5234 1.4648 1.4648 3.4531 2.2891 5.5234 2.2891h38.625c3.1484 0 5.9883-1.8945 7.2031-4.7969 2.7344 0.48438 6.25 1.3281 8.5781-0.64062 1.543-1.082 2.5859-2.7344 2.8906-4.5938l10.594-62.5c0.65234-3.8555-1.9414-7.5117-5.7969-8.1719zm-23.469 77.578h-38.625c-2.5898 0-4.6875-2.0977-4.6875-4.6875v-61.922c0-2.5898 2.0977-4.6875 4.6875-4.6875h38.625c2.5898 0 4.6875 2.0977 4.6875 4.6875v61.922c0 2.5898-2.0977 4.6875-4.6875 4.6875zm26.188-69.922-10.594 62.5c-0.39062 2.1445-2.4297 3.5781-4.5781 3.2188l-3.125-0.53125v-61.875c0-2.0703-0.82422-4.0586-2.2891-5.5234-1.4648-1.4648-3.4531-2.2891-5.5234-2.2891h-21.812l0.59375-3.5312c0.16406-1.0469 0.74219-1.9844 1.6016-2.6055 0.85937-0.61719 1.9297-0.86719 2.9766-0.69141l39.516 6.6875c1.0469 0.17969 1.9805 0.76953 2.5898 1.6445 0.60547 0.87109 0.83984 1.9492 0.64453 2.9961z"/>
  <path d="m56.891 49.719h-35.344c-0.86328 0-1.5625 0.69922-1.5625 1.5625s0.69922 1.5625 1.5625 1.5625h35.344c0.86328 0 1.5625-0.69922 1.5625-1.5625s-0.69922-1.5625-1.5625-1.5625z"/>
  <path d="m56.891 60.516h-35.344c-0.86328 0-1.5625 0.69922-1.5625 1.5625s0.69922 1.5625 1.5625 1.5625h35.344c0.86328 0 1.5625-0.69922 1.5625-1.5625s-0.69922-1.5625-1.5625-1.5625z"/>
  <path d="m56.891 71.297h-35.344c-0.86328 0-1.5625 0.69922-1.5625 1.5625s0.69922 1.5625 1.5625 1.5625h35.344c0.86328 0 1.5625-0.69922 1.5625-1.5625s-0.69922-1.5625-1.5625-1.5625z"/>
  <path d="m56.891 82.078h-35.344c-0.86328 0-1.5625 0.69922-1.5625 1.5625s0.69922 1.5625 1.5625 1.5625h35.344c0.86328 0 1.5625-0.69922 1.5625-1.5625s-0.69922-1.5625-1.5625-1.5625z"/>
  <path d="m32.406 46.031h13.625c2.5898 0 4.6875-2.0977 4.6875-4.6875v-13.641c0-2.5898-2.0977-4.6875-4.6875-4.6875h-13.625c-2.5898 0-4.6875 2.0977-4.6875 4.6875v13.641c0 2.5898 2.0977 4.6875 4.6875 4.6875zm-1.5625-18.328c0-0.86328 0.69922-1.5625 1.5625-1.5625h13.625c0.41406 0 0.8125 0.16406 1.1055 0.45703 0.29297 0.29297 0.45703 0.69141 0.45703 1.1055v13.641c0 0.41406-0.16406 0.8125-0.45703 1.1055s-0.69141 0.45703-1.1055 0.45703h-13.625c-0.86328 0-1.5625-0.69922-1.5625-1.5625z"/>
 </g>
<text x="0.0" y="117.5" font-size="5.0" font-weight="bold" font-family="Arbeit Regular, Helvetica, Arial-Unicode, Arial, Sans-serif" fill="#000000">Created by Abdul Matic</text><text x="0.0" y="122.5" font-size="5.0" font-weight="bold" font-family="Arbeit Regular, Helvetica, Arial-Unicode, Arial, Sans-serif" fill="#000000">from Noun Project</text></svg>